<?xml version="1.0" encoding="UTF-8" standalone="no"?>
<!-- Created with Inkscape (http://www.inkscape.org/) -->

<svg
   xmlns:dc="http://purl.org/dc/elements/1.1/"
   xmlns:cc="http://creativecommons.org/ns#"
   xmlns:rdf="http://www.w3.org/1999/02/22-rdf-syntax-ns#"
   xmlns:svg="http://www.w3.org/2000/svg"
   xmlns="http://www.w3.org/2000/svg"
   xmlns:sodipodi="http://sodipodi.sourceforge.net/DTD/sodipodi-0.dtd"
   xmlns:inkscape="http://www.inkscape.org/namespaces/inkscape"
   width="800"
   height="800"
   viewBox="0 0 800.00001 800.00001"
   id="svg5314"
   version="1.1"
   inkscape:version="0.48.4 r9939"
   enable-background="new"
   sodipodi:docname="gitlab.svg">
  <defs
     id="defs5316">
    <clipPath
       id="clipPath18">
      <path
         d="M 0,501.602 0,0 l 1863.85,0 0,501.602 -1863.85,0 z"
         inkscape:connector-curvature="0"
         id="path20" />
    </clipPath>
    <filter
       inkscape:collect="always"
       id="filter3920">
      <feGaussianBlur
         inkscape:collect="always"
         stdDeviation="8.5157017"
         id="feGaussianBlur3922" />
    </filter>
    <filter
       inkscape:collect="always"
       id="filter3914">
      <feGaussianBlur
         inkscape:collect="always"
         stdDeviation="4.7557018"
         id="feGaussianBlur3916" />
    </filter>
    <filter
       inkscape:collect="always"
       id="filter3922">
      <feGaussianBlur
         inkscape:collect="always"
         stdDeviation="3.2043164"
         id="feGaussianBlur3924" />
    </filter>
    <filter
       inkscape:collect="always"
       id="filter3930">
      <feGaussianBlur
         inkscape:collect="always"
         stdDeviation="3.6886643"
         id="feGaussianBlur3932" />
    </filter>
  </defs>
  <sodipodi:namedview
     id="base"
     pagecolor="#ffffff"
     bordercolor="#666666"
     borderopacity="1.0"
     inkscape:pageopacity="0.0"
     inkscape:pageshadow="2"
     inkscape:zoom="0.35"
     inkscape:cx="56.672739"
     inkscape:cy="612.10914"
     inkscape:document-units="px"
     inkscape:current-layer="layer1"
     showgrid="false"
     units="px"
     inkscape:window-width="1366"
     inkscape:window-height="713"
     inkscape:window-x="0"
     inkscape:window-y="30"
     inkscape:window-maximized="1" />
  <metadata
     id="metadata5319">
    <rdf:RDF>
      <cc:Work
         rdf:about="">
        <dc:format>image/svg+xml</dc:format>
        <dc:type
           rdf:resource="http://purl.org/dc/dcmitype/StillImage" />
        <dc:title></dc:title>
      </cc:Work>
    </rdf:RDF>
  </metadata>
  <g
     inkscape:label="Layer 1"
     inkscape:groupmode="layer"
     id="layer1"
     transform="translate(0,-252.36216)"
     style="display:inline">
    <circle
       style="fill:#2196f3;fill-opacity:1;stroke:#2196f3;stroke-width:1;stroke-opacity:1"
       id="path5866"
       cx="400.28571"
       cy="652.64789"
       r="391.42856"
       d="m 791.71426,652.64789 c 0,216.18002 -175.24853,391.42851 -391.42855,391.42851 -216.18003,0 -391.4285628,-175.24849 -391.4285628,-391.42851 0,-216.18003 175.2485328,-391.42856 391.4285628,-391.42856 216.18002,0 391.42855,175.24853 391.42855,391.42856 z"
       sodipodi:cx="400.28571"
       sodipodi:cy="652.64789"
       sodipodi:rx="391.42856"
       sodipodi:ry="391.42856" />
    <path
       id="path3098"
       d="m 178.2331,777.06579 c -10.63908,-8.36794 -21.98803,-16.39097 -29.74316,-27.68833 -16.31819,-19.92266 -28.88242,-42.98876 -37.47185,-67.22839 -5.19172,-15.76175 -6.96978,-32.66028 -13.662597,-47.81299 -7.001356,-11.00551 1.199777,-23.03631 13.254907,-26.53462 5.36719,-1.03014 14.80441,-6.09259 3.41273,-2.4742 -10.21299,7.49309 -11.20139,-6.80165 -0.72875,-7.70682 7.14705,-0.94999 9.77806,-6.80085 7.33397,-12.06792 -7.67198,-5.00302 18.60352,-10.50141 5.38274,-17.96662 -13.77248,-14.85897 19.26475,-17.71936 11.11395,-0.84413 -1.95104,12.97636 23.08501,-2.37832 17.27606,12.60657 5.90416,7.19625 22.10956,1.63789 21.70754,11.73356 8.60081,0.59122 11.55264,7.82793 19.62655,8.38352 8.3678,3.77885 23.53728,6.75664 26.38469,16.18622 -8.3018,6.5725 -27.52583,-13.57626 -28.44939,4.61721 2.50787,26.87598 1.86895,54.56175 11.7021,80.15569 4.65102,15.49729 15.92625,27.69662 26.10899,39.76661 9.7428,11.82103 22.93983,20.14251 36.3909,27.14962 11.79942,5.56482 24.52055,9.25561 37.37994,11.57147 5.21578,-3.98945 14.42412,-18.82129 22.56073,-12.56703 0.38604,7.02734 -16.14962,14.69016 -0.77793,13.91348 9.02611,-2.72291 15.28658,6.98052 22.71941,-1.77199 6.84781,8.11136 28.46243,-5.18253 23.59006,11.39719 -6.58853,4.25074 -16.19753,1.68218 -22.79691,7.52976 -10.88062,-5.43448 -19.54317,4.86271 -31.58879,3.56047 -13.37717,2.396 -26.98631,3.36319 -40.54862,3.3842 -22.24976,-1.75795 -44.97073,-2.49896 -66.13732,-10.2456 -11.92388,-3.46483 -23.56019,-10.25431 -34.03995,-17.04693 z m 18.79095,8.14179 c 11.64329,5.03523 23.02832,10.342 35.78856,11.94274 20.24429,2.81567 41.15024,7.14649 61.46709,3.19596 -9.19515,-4.15204 -18.70145,1.61757 -27.86196,-2.96897 -10.98692,2.36415 -22.77712,-0.60225 -33.94654,-2.06271 -12.70154,-5.65771 -26.40865,-9.54811 -38.30311,-16.89193 -14.86259,-5.42862 7.68674,6.96184 11.70045,7.96537 9.29102,5.27362 -10.21713,-2.70342 -12.96734,-4.8957 -7.78179,-4.36521 -8.7735,-3.45308 -0.77058,0.98009 1.61191,0.94344 3.20475,1.93177 4.89343,2.73515 z m -22.15505,-15.657 c 11.28269,4.17911 -0.0498,-7.93422 -5.21994,-7.23036 -2.29065,-3.97404 -8.7516,-6.48454 -4.19401,-8.61929 -8.19824,2.84611 -8.58801,-10.82301 -12.44157,-8.87007 -8.67302,-2.73863 -3.37554,-12.44011 -13.70665,-18.39778 -0.94302,-6.27771 -10.26439,-11.72266 -13.23749,-21.19163 -1.31309,-4.8481 -10.5311,-18.7702 -4.86847,-5.81356 4.82147,12.47292 13.30443,23.15449 20.36389,33.82384 5.48166,10.15848 11.95433,20.77526 21.93748,27.11236 3.36524,3.22819 6.61443,8.17457 11.36676,9.18649 z M 142.36594,733.8648 c 0.39381,-1.70386 2.06349,3.6878 0,0 z m 46.01507,40.69549 c 2.49844,-1.11876 -3.59268,-1.40947 0,0 z m 6.12477,2.23417 c -0.63434,-3.08497 -2.79593,1.72501 0,0 z m 7.66638,3.19791 c 3.6499,-3.4752 -5.62483,-2.19119 0,0 z m 13.13974,7.32343 c 2.2179,-3.27826 -7.09841,-1.23718 0,0 z m -25.23185,-17.58901 c 5.66899,-3.66735 -7.32214,-0.0507 0,0 z m 5.75123,2.86776 c -0.16076,-1.93882 -2.04969,0.86828 0,0 z m 28.74404,17.94071 c 4.62075,2.9161 26.98341,6.39157 12.98032,1.19576 -2.34305,0.49396 -25.96515,-6.68151 -12.98032,-1.19576 z m -45.63214,-35.53959 c -0.44924,-1.94445 -7.17236,-2.14674 0,0 z m 13.38139,7.79881 c 3.48252,-2.42893 -7.22821,-1.87347 0,0 z m 11.25564,6.90132 c 4.99744,-1.8841 -8.10698,-1.89298 0,0 z m -30.08208,-20.63041 c 5.42217,4.1582 21.86722,0.53286 8.30377,-2.48226 -6.17331,-3.29068 -20.08661,-5.54312 -10.60303,1.98429 l 2.29925,0.49801 1e-5,-4e-5 z m 37.70557,23.01331 c 2.25858,-3.848 -9.47139,-2.19744 0,0 z m -11.45758,-9.10594 c 13.25853,3.75057 -11.14922,-8.38447 -3.27126,-1.38011 l 1.74604,0.79011 1.52523,0.59009 -1e-5,-9e-5 z m 22.9715,13.27693 c 12.55659,0.1198 -11.34151,-1.73103 0,2e-5 l 0,-2e-5 z M 168.6668,741.80061 c -0.49043,-2.33892 -3.09864,0.19604 0,0 z m 75.29129,46.36367 c 0.33485,-4.22424 -4.0978,3.14336 0,0 z m -53.86302,-33.24126 c -0.75949,-2.22433 -3.92338,-0.0909 0,0 z m -20.23744,-14.58989 c 7.20874,-0.43287 -9.86927,-3.1764 0,0 z m -23.97394,-15.4965 c -0.89725,-3.45571 -7.84423,-6.21187 0,0 z m 62.93727,39.94185 c -1.32032,-1.50582 -0.62106,0.32939 0,0 z m 39.17436,24.03977 c -0.12564,-2.30106 -2.13357,0.87097 0,0 z m -42.64128,-27.6199 c 0.70515,-2.96476 -6.14687,-0.89765 0,0 z m -29.18428,-18.49573 c 5.36289,-0.57423 -8.59108,-3.62554 0,0 z m 49.3679,30.67603 c 8.35732,-3.31093 -8.14547,-1.61633 0,0 z m -25.67908,-17.4314 c 9.63181,1.24185 -11.4604,-6.55132 -2.11329,-0.69732 l 2.11328,0.69738 1e-5,-6e-5 z m 33.47498,20.58292 c 8.99243,-5.37598 6.02775,12.58878 15.25616,1.51765 9.10305,-6.64654 -7.86124,8.21719 3.35784,1.18507 8.11359,-5.42657 20.09763,2.57239 27.66841,5.18233 5.44441,-0.26746 10.73717,4.70774 16.31856,1.68097 10.74421,-2.89391 -21.01006,-4.29215 -12.68618,-9.42657 -9.83102,2.86126 -17.09462,-3.4111 -21.93216,-9.70822 -11.02752,-2.54642 -23.77786,-8.18431 -29.28144,-17.9433 -2.24389,-3.66413 3.24164,0.5162 -1.93703,-5.47332 -6.64496,-5.91027 -9.96301,-12.6193 -14.42376,-19.80364 -5.32894,-2.84285 -5.94976,-11.21062 -6.48848,-0.28052 0.0422,-6.89814 -6.43397,-11.54108 -8.01467,-9.61107 -0.0284,-6.64331 6.93074,-3.31328 2.05915,-8.22855 -1.04855,-6.88555 -4.50101,-14.06045 -5.53873,-21.83453 -1.61232,-3.7474 -0.22705,-11.77335 -5.50289,-3.29014 -1.92213,8.96547 -0.63797,-11.01755 2.35113,-4.42793 3.92331,-6.7241 -1.40852,-5.93326 -1.62695,-4.99958 2.55568,-5.6734 1.61757,-13.72076 -0.66684,-10.65075 1.36181,-6.01312 2.1514,-22.12997 -2.03819,-19.27386 2.53964,-6.28793 4.81633,-28.7723 -6.20852,-20.19974 -4.46815,0.0627 -12.20567,1.62195 -15.86317,3.44092 11.46782,6.32138 -1.15349,2.28287 -5.82166,1.27817 -0.60826,5.84916 -5.23198,3.31943 -11.00853,3.37678 9.22638,1.14151 -4.49284,9.4363 -9.78573,6.2142 -6.87398,3.28535 5.93243,11.48615 0.13791,14.02172 0.71213,3.82272 -10.53094,-1.38048 -9.64794,7.44756 -6.6733,-2.80731 -0.91889,10.47212 2.41976,5.98092 11.35004,3.07183 7.99015,10.07525 8.27919,16.7279 -1.84933,3.87652 -9.13028,-9.11189 -1.62159,-8.51035 -5.92377,-9.62298 -6.55275,-3.47828 -11.47521,0.99215 -1.14519,0.32466 12.55609,6.36068 3.95783,9.34534 7.56469,1.16722 7.77992,7.78705 9.31989,11.97602 4.54679,4.73574 3.61622,-5.22923 9.05661,0.462 -3.44274,-5.07027 -18.23549,-14.28586 -6.32534,-11.3302 -0.0637,-5.10301 -2.15406,-9.21796 1.49489,-9.11813 3.6135,-6.54403 -3.78445,16.13487 4.36057,7.81796 2.2547,-0.98451 2.81315,-6.55233 6.86586,0.52579 5.88636,5.79071 2.12618,9.9868 -6.17718,4.68454 1.48555,5.03954 11.10778,6.84048 9.29953,14.72133 1.91693,6.93139 4.59888,4.37844 6.93665,3.97771 1.83385,6.73464 2.87521,1.78252 2.96219,-1.42232 8.39668,1.79746 6.4299,6.76094 9.05717,10.22869 5.78602,2.61163 -8.28175,-17.70267 1.65185,-6.10837 10.45111,9.43577 3.91947,13.37459 -5.4594,11.86294 5.93608,-0.47954 7.85037,8.02514 15.27537,7.72635 6.77092,3.22108 11.35514,15.59272 -0.31576,10.44267 -4.04794,-3.6498 -18.37267,-8.15232 -6.67266,-1.21002 10.80611,5.00414 19.38868,7.99778 29.81075,14.27922 7.45872,5.32468 10.68115,11.42338 13.50816,12.63062 -6.26876,2.99418 -18.89155,-2.39094 -9.51838,-4.04129 -5.8463,-1.06495 -12.42195,-4.02143 -6.82212,3.26277 4.76165,3.97567 16.86985,3.55449 19.04043,4.00496 -1.83985,4.054 -4.99752,4.3764 0.0754,4.69083 -5.6594,3.01599 1.81475,3.48298 2.33921,5.20632 z m -11.57302,-32.68163 c -3.44322,-3.60091 -4.3335,-10.34557 -0.61144,-4.47677 1.90872,0.76651 6.11447,11.02191 0.61152,4.47677 l -8e-5,0 z m 37.68894,23.94069 c 2.14767,-0.13908 0.0624,1.63162 0,0 z m -43.12567,-32.76996 c -0.13208,-5.44409 1.24547,4.19909 0,0 z m -3.7458,-5.03981 c -4.33096,-8.3682 5.45993,2.36986 0,0 z M 167.1849,698.64919 c 2.54441,-0.67855 1.25181,4.35169 0,0 z m 36.12711,19.58212 c 1.5626,-5.86802 1.83631,4.92365 0,0 z M 177.7893,700.4843 c -1.79924,-3.23805 3.76345,3.03682 0,0 z m 21.9039,7.02164 c -4.10313,-9.19271 2.90492,-5.02131 0.90777,1.50661 l -0.90777,-1.50661 0,0 z m -37.77345,-25.19107 c -1.83442,-3.01589 -4.8689,-11.86498 -3.89197,-14.56641 0.88378,4.39955 9.35587,18.93344 4.15581,6.02057 -5.74654,-10.82439 6.86915,3.51349 8.16685,6.21333 0.60429,2.68579 -3.54545,-0.73377 -0.73368,5.56375 -5.1277,-7.1699 -3.02707,3.9605 -7.69701,-3.23124 z m -11.67411,-8.04423 c 0.48055,-7.01234 2.67248,4.80849 0,0 z m 5.25112,1.80762 c 2.5058,-5.2928 4.24883,7.37862 0,0 z m -12.63171,-9.7716 c -4.34631,-4.31893 -7.49154,-8.3002 0.20335,-2.68049 2.96499,0.11571 -6.58748,-9.05366 0.71404,-2.91177 7.67781,1.39992 3.79135,12.58873 -0.91739,5.59226 z m 6.63528,-0.17346 c 2.52402,-2.50122 1.33995,2.46216 0,0 z m 4.08278,1.30887 c -3.82653,-7.17245 4.64411,3.00698 0,0 z m -8.11632,-7.75638 c -12.63505,-11.24431 15.87673,5.87966 2.06419,2.08465 l -2.06427,-2.08455 8e-5,-10e-5 z m 36.20131,21.03373 c -5.46766,-3.27837 -1.44894,-23.07952 0.41565,-9.53695 5.31541,-1.71948 -0.29347,6.99404 3.67108,6.91339 -0.62481,5.49768 -2.39845,7.4742 -4.08673,2.62356 z m 13.39002,7.9138 c 0.53625,-5.96748 1.12858,4.07991 0,0 z m -2.32582,-2.29803 c 0.602,-2.54933 0.0622,3.00209 0,0 z m -44.78693,-30.34441 c -8.11718,-11.19924 23.59063,11.3285 5.19891,2.84055 -1.9218,-0.50263 -4.23418,-0.68209 -5.19891,-2.84055 z m 25.78469,13.67095 c -0.76815,-9.42995 1.71542,1.5631 -2.8e-4,-3e-5 l 2.8e-4,3e-5 z m 19.57654,12.55821 c 1.51499,-5.37149 0.11294,3.55337 0,0 z m -44.11779,-30.50335 c 4.82436,-1.03186 19.99283,8.47269 6.06333,2.71494 -1.54774,-1.7134 -4.84718,-0.93493 -6.06333,-2.71494 z m 41.42815,20.64796 c 0.51566,-9.64238 2.88011,-5.7596 0.0178,1.38023 l -0.0177,-1.38021 -7e-5,-2e-5 z m -37.83697,-24.00323 c 1.96566,-2.88337 -5.21802,-13.03626 1.03553,-3.64189 2.70211,2.14705 7.8236,3.59683 3.30179,4.50009 7.1116,6.2736 -1.73452,1.69999 -4.33732,-0.8582 z m 35.78791,20.99134 c 1.35799,-10.98414 1.19757,6.43532 0,0 z M 148.67465,638.2161 c 1.50145,-0.64165 0.79294,2.00056 0,0 z m 9.33501,5.55619 c 2.40242,-5.0411 4.43185,5.62221 0,0 z m 26.33173,14.648 c -0.0254,-1.93607 0.49677,2.81623 0,0 z m -1.5253,-3.37685 c -3.65476,-9.01654 3.39956,4.77382 0,0 z m -2.24404,-5.9116 c -0.61347,-3.72573 2.08499,4.68072 -1.1e-4,-10e-6 l 1.1e-4,10e-6 z m 3.65207,-5.93663 c -2.50793,-4.4196 3.16703,-19.47621 3.80029,-10.13823 -2.64705,7.27595 -0.76362,11.34628 1.08299,1.58717 3.41014,-7.68051 -0.73663,15.1561 -4.88334,8.55109 l 6e-5,-3e-5 z m 3.75305,-22.39166 c 1.09329,-1.34251 0.24266,1.6174 0,0 z m -6.26755,123.50134 c -1.48661,-1.29737 0.18668,0.82553 0,0 z m 12.91159,6.53145 c 7.18207,1.84278 7.14536,-1.11745 0.65425,-1.99689 -3.49141,-3.24795 -14.50805,-6.69302 -4.6476,-0.40302 0.65303,1.6542 2.71657,1.61566 3.99335,2.39991 z m -25.49992,-16.93691 c 3.95664,2.9505 14.90359,8.36218 5.63666,1.12301 3.1244,-3.63001 -5.9802,-5.5622 -2.96,-7.9904 -7.682,-4.70072 -6.06003,-4.28256 -0.67805,-4.13467 -9.23239,-4.12666 1.33263,-3.81797 0.83518,-5.93248 -3.55995,-0.70311 -17.68215,-6.27723 -9.37412,0.45788 -8.44567,-4.3062 -2.01263,1.60412 -4.56534,0.97927 -8.63625,-2.35475 7.69108,6.5776 -1.37161,4.36021 4.9546,3.92634 13.33611,10.05716 2.0947,4.15508 -1.48114,2.13204 8.04447,5.36372 10.38258,6.9821 z m 13.50395,7.7579 c 16.41943,5.29107 -8.04993,-6.46417 0,0 z m 69.12749,41.8775 c 0.21178,-3.25744 -2.2441,2.77876 0,0 z m 7.10501,2.99028 c 3.78823,-3.67074 0.15486,5.84709 6.2771,-0.89862 0.0662,-4.82913 -0.18852,-7.6815 -7.03545,-1.81528 -1.88748,1.04675 -2.73012,5.49743 0.75835,2.7139 z M 146.0736,715.69455 c -1.16346,-4.5734 -8.15502,-4.5497 0,0 z m 7.58682,4.97157 c -2.81732,-4.67127 -10.0522,-4.22903 0,0 z m 43.16176,26.02992 c 4.214,3.74297 19.35426,2.74638 5.1182,0.4606 -2.10847,-3.11749 -13.38848,-2.3672 -5.1182,-0.4606 z m 59.33313,36.64318 c 6.4857,-5.44226 -6.28392,2.42787 0,0 z m 13.48878,9.26941 c 0.0405,-1.74648 -2.79558,0.76464 0,0 z m 0.0207,-2.44507 c 7.18212,-7.60965 -6.95923,0.45008 -6e-5,0 l 6e-5,0 z M 127.41335,700.07251 c -6.12134,-8.73402 -3.80521,-12.65988 -9.7083,-19.79132 -1.1175,-5.45347 -10.12691,-17.82851 -4.65986,-4.71814 5.00751,7.66766 6.49553,19.53941 14.36816,24.50946 z m 139.99871,87.67202 c 13.21337,-8.54042 -5.42383,-3.72021 0,0 z m 10.08663,3.95133 c 6.61686,-5.6812 -4.18553,-1.18825 0,0 z M 143.82475,706.04053 c 1.89372,-2.8173 -4.89078,-0.36037 0,0 z m 131.56786,82.95746 c 6.4067,-4.13081 -1.4761,-3.49659 -1.16122,0.3799 l 1.16123,-0.3799 -1e-5,0 z m -86.94752,-54.8033 c -0.22024,-2.78933 -3.38321,0.23676 0,0 z m 5.37333,3.09182 c -1.70769,-3.45252 -2.62558,0.54232 0,0 z m 91.85437,54.50303 c 8.20777,-5.92103 -4.97546,-1.13362 -1.72287,1.1218 l 1.72287,-1.1218 0,0 z m -3.14299,-1.51909 c 6.68629,-5.60288 -7.05912,2.48296 0,0 z m 16.05836,10.69399 c 4.48925,-3.00689 -5.454,-0.97263 0,0 z M 147.94198,704.00895 c 6.01765,1.34827 24.04801,14.81986 13.41086,0.93169 -5.44793,-1.61267 -2.18064,-14.92966 -7.73756,-12.57274 3.72979,6.23086 3.06869,8.88292 -4.76223,4.95471 -9.84223,-4.80442 -5.53105,2.38093 -3.60754,4.36124 -2.62125,0.59566 3.4672,2.27501 2.69647,2.3251 z m -27.41625,-21.65184 c 1.07733,-4.4558 -9.91967,-24.51321 -5.19295,-10.05019 1.70622,3.02964 1.53274,8.77142 5.19295,10.05019 z m 50.32059,31.02373 c -3.09868,-2.59143 -0.14725,-0.36675 0,0 z m 7.63061,1.77577 c -0.004,-4.72006 -8.43452,-1.91672 0,0 z m 66.12531,41.68595 c -1.26119,-3.22491 -4.98523,-0.0748 1.2e-4,6e-5 l -1.2e-4,-6e-5 z m 3.17542,2.31955 c -0.46878,-1.80496 -1.83204,0.34842 0,0 z m 26.20988,16.50903 c 2.52083,-1.86232 -3.14571,-0.23785 0,0 z m -139.7672,-89.81787 c 7.2102,-2.79149 -7.7252,-1.99054 0,0 z m 104.56069,65.87388 c -0.0802,-4.66777 -4.5965,1.15801 0,0 z M 131.37159,679.21487 c 4.6315,-1.56445 -4.2845,-1.03043 0,0 z m 13.44309,6.51189 c -0.084,-1.53421 -1.42199,0.58069 0,0 z m 163.96589,100.54609 c 5.95561,-1.20749 19.52731,3.03133 21.72089,-1.5791 -7.23241,-0.17559 -25.0224,-5.1026 -25.86409,1.17577 l 1.58321,0.24941 2.55999,0.1539 0,2e-5 z M 149.08724,686.80346 c 0.10358,-4.72994 -3.68845,-0.17666 0,0 z m -35.3453,-24.51829 c -1.60517,-9.01185 -6.10505,-1.36391 0,0 z m 8.42857,2.11858 c 0.10358,-2.89373 -7.7147,-2.60378 0,0 z m 4.81668,2.36564 c -1.39233,-1.12781 -1.08982,1.42474 0,0 z m 30.30726,19.44212 c 1.42679,-1.31075 -3.37792,-0.97088 0,0 z m -33.5154,-24.7774 c -0.81467,-6.80658 -9.76216,-1.01982 0,0 z m -17.27992,-11.21217 c -0.24576,-3.14135 -1.68395,1.185 0,0 z m 2.57033,-1.94114 c -0.41934,-3.72484 -2.20681,0.47393 0,0 z m 14.20171,8.47715 c 6.00526,-2.35894 -10.9386,-4.87938 -1.22705,-0.44568 l 1.22705,0.44568 z m 190.06772,117.40168 c 3.84367,-3.52399 -4.88507,-1.08955 0,0 z m 22.96149,11.90233 c 1.54034,-4.55616 -3.87815,0.59984 0,0 z M 124.72255,649.31436 c 0.63263,-4.4074 -4.76093,0.87515 0,0 z m -20.20558,-13.53757 c -1.08545,-6.2224 -0.93697,-17.14448 9.44531,-13.45339 -13.85863,2.75149 9.59172,17.22489 6.63038,5.79763 5.82722,0.28532 11.39941,-3.4439 8.34133,2.21541 11.48136,-1.26805 19.44122,-11.22402 30.53145,-9.82888 8.63876,-1.14321 18.08407,-2.01023 27.39343,-5.48761 7.65405,-0.55141 15.02212,-8.79216 10.82672,-13.67663 -10.43793,-0.88318 -21.36422,0.42279 -32.90103,2.71592 -12.78424,2.65766 -24.39665,7.70703 -37.29565,9.87445 -12.57288,1.68893 2.52893,4.6534 -1.07245,5.31384 -6.56071,2.27639 7.82417,3.81144 -0.85054,6.21118 -5.35735,-1.01864 -10.93365,-2.85936 -8.64523,-8.50502 -12.04372,1.56282 -22.626702,6.56137 -13.11144,18.8174 l 0.70771,0.006 1e-5,-3.7e-4 z m 29.02098,-14.78026 c 2.82383,-10.40273 15.12861,8.56018 4.62841,1.38174 -1.25417,-0.93861 -3.31683,-1.70434 -4.62841,-1.38174 z m 0.54938,-5.04352 c 4.07559,-3.03626 2.16655,1.70225 0,0 z m 5.17504,0.0821 c 0.36791,-4.78681 11.84658,2.53411 1.89271,1.72321 l -1.89271,-1.72321 0,0 z m 7.07899,-2.84625 c 2.58515,-3.02058 0.74308,2.6868 0,0 z m 1.81095,-1.21267 c 4.30456,-5.17211 24.37706,-3.30091 9.68468,-0.50431 -3.93808,-2.96482 -6.95681,1.74816 -9.68468,0.50431 z m 26.19509,-4.03792 c -0.6548,-14.12783 13.01392,5.02055 0,0 z m 7.43271,-0.0406 c 2.71742,-7.1206 10.54533,-2.85732 1.25749,-1.43088 0.20169,0.75774 -0.27235,3.67603 -1.25749,1.43088 z m -59.9885,37.76183 c 8.11934,-4.97196 -8.61959,-4.31355 0,0 l 0,0 z m 6.00342,1.66823 c 2.8467,-3.02695 -6.18551,-1.22775 0,0 z m -17.68885,-12.55396 c 4.63938,-3.56389 -5.49007,-1.355 0,0 z m 239.74743,149.98596 c 0.13412,-4.13481 -3.54601,1.86326 0,0 z m -24.36135,-16.62481 c 0.69274,-4.76047 -3.13064,0.41503 0,0 z m 31.06038,18.22802 c 6.48659,0.0219 19.65382,-2.01443 5.54022,-2.00797 -2.21473,0.34538 -12.90484,0.27131 -5.54021,2.00793 l -1e-5,4e-5 z M 133.07573,644.40984 c 5.24962,-0.36058 8.21333,-5.79072 -1.01526,-5.47858 -14.30275,-1.48075 12.61908,4.89733 -1.83482,3.07361 -1.94216,1.28616 2.73727,2.76083 2.85008,2.40497 z m 4.6234,2.34009 c -0.54813,-3.37052 -1.62337,1.79055 0,0 z m 5.4843,-14.62408 c 2.27805,-2.82559 -3.15232,-0.75539 0,0 z m -17.45867,-29.1831 c 9.36897,-3.18727 22.1809,-6.76877 26.60461,1.56936 -4.50209,-5.41861 -1.81687,-10.75292 2.43536,-2.83049 6.01271,8.01582 9.02279,-3.64581 5.11204,-6.33447 4.45663,5.5374 9.52554,8.15404 2.98392,0.34999 7.10859,-8.55091 -14.23375,1.11973 -19.08472,1.02235 -2.33398,1.0476 -24.09649,5.55004 -18.05121,6.22326 z m 5.49075,-10.51575 c 5.3432,-4.03287 18.47967,2.39888 10.05007,-4.00797 -0.82415,-0.72798 -18.46084,4.85841 -10.05007,4.00797 z m 19.47972,0.80421 c 6.2535,0.15958 -2.6974,-8.40096 4.75442,-4.52191 -1.22384,-3.99812 -8.67602,-4.7466 -12.31931,-6.34395 -2.06064,3.6554 4.1944,10.91499 7.56489,10.86586 z M 134.63121,575.5485 c 2.16339,-2.93274 -3.79151,1.48682 0,0 z m 7.96164,1.90562 c 10.07752,-1.33664 -2.56881,-4.33987 -2.03068,-0.10738 l 2.03068,0.10738 0,-2e-5 z m -14.86601,-11.6323 c -7.0957,-9.26281 13.34441,1.55705 6.13518,-8.14144 -6.06775,-4.83175 -11.89851,5.43738 -6.13518,8.14144 z m 91.06197,49.0486 c 3.25447,-5.76933 -13.43642,-7.77672 -2.19275,-2.04474 1.0352,0.34593 0.80091,2.44376 2.19275,2.04474 z"
       style="opacity:0.56632655;fill:#000000;filter:url(#filter3914)"
       inkscape:connector-curvature="0" />
    <path
       inkscape:connector-curvature="0"
       style="fill:#ffffff"
       d="M 170.2331,753.06579 C 159.59402,744.69785 148.24507,736.67482 140.48994,725.37746 124.17175,705.4548 111.60752,682.3887 103.01809,658.14907 97.82637,642.38732 96.04831,625.48879 89.355493,610.33608 82.354137,599.33057 90.55527,587.29977 102.6104,583.80146 c 5.36719,-1.03014 14.80441,-6.09259 3.41273,-2.4742 -10.21299,7.49309 -11.20139,-6.80165 -0.72875,-7.70682 7.14705,-0.94999 9.77806,-6.80085 7.33397,-12.06792 -7.67198,-5.00302 18.60352,-10.50141 5.38274,-17.96662 -13.77248,-14.85897 19.26475,-17.71936 11.11395,-0.84413 -1.95104,12.97636 23.08501,-2.37832 17.27606,12.60657 5.90416,7.19625 22.10956,1.63789 21.70754,11.73356 8.60081,0.59122 11.55264,7.82793 19.62655,8.38352 8.3678,3.77885 23.53728,6.75664 26.38469,16.18622 -8.3018,6.5725 -27.52583,-13.57626 -28.44939,4.61721 2.50787,26.87598 1.86895,54.56175 11.7021,80.15569 4.65102,15.49729 15.92625,27.69662 26.10899,39.76661 9.7428,11.82103 22.93983,20.14251 36.3909,27.14962 11.79942,5.56482 24.52055,9.25561 37.37994,11.57147 5.21578,-3.98945 14.42412,-18.82129 22.56073,-12.56703 0.38604,7.02734 -16.14962,14.69016 -0.77793,13.91348 9.02611,-2.72291 15.28658,6.98052 22.71941,-1.77199 6.84781,8.11136 28.46243,-5.18253 23.59006,11.39719 -6.58853,4.25074 -16.19753,1.68218 -22.79691,7.52976 -10.88062,-5.43448 -19.54317,4.86271 -31.58879,3.56047 -13.37717,2.396 -26.98631,3.36319 -40.54862,3.3842 -22.24976,-1.75795 -44.97073,-2.49896 -66.13732,-10.2456 -11.92388,-3.46483 -23.56019,-10.25431 -34.03995,-17.04693 z m 18.79095,8.14179 c 11.64329,5.03523 23.02832,10.342 35.78856,11.94274 20.24429,2.81567 41.15024,7.14649 61.46709,3.19596 -9.19515,-4.15204 -18.70145,1.61757 -27.86196,-2.96897 -10.98692,2.36415 -22.77712,-0.60225 -33.94654,-2.06271 -12.70154,-5.65771 -26.40865,-9.54811 -38.30311,-16.89193 -14.86259,-5.42862 7.68674,6.96184 11.70045,7.96537 9.29102,5.27362 -10.21713,-2.70342 -12.96734,-4.8957 -7.78179,-4.36521 -8.7735,-3.45308 -0.77058,0.98009 1.61191,0.94344 3.20475,1.93177 4.89343,2.73515 z m -22.15505,-15.657 c 11.28269,4.17911 -0.0498,-7.93422 -5.21994,-7.23036 -2.29065,-3.97404 -8.7516,-6.48454 -4.19401,-8.61929 -8.19824,2.84611 -8.58801,-10.82301 -12.44157,-8.87007 -8.67302,-2.73863 -3.37554,-12.44011 -13.70665,-18.39778 -0.94302,-6.27771 -10.26439,-11.72266 -13.23749,-21.19163 -1.31309,-4.8481 -10.5311,-18.7702 -4.86847,-5.81356 4.82147,12.47292 13.30443,23.15449 20.36389,33.82384 5.48166,10.15848 11.95433,20.77526 21.93748,27.11236 3.36524,3.22819 6.61443,8.17457 11.36676,9.18649 z M 134.36594,709.8648 c 0.39381,-1.70386 2.06349,3.6878 0,0 z m 46.01507,40.69549 c 2.49844,-1.11876 -3.59268,-1.40947 0,0 z m 6.12477,2.23417 c -0.63434,-3.08497 -2.79593,1.72501 0,0 z m 7.66638,3.19791 c 3.6499,-3.4752 -5.62483,-2.19119 0,0 z m 13.13974,7.32343 c 2.2179,-3.27826 -7.09841,-1.23718 0,0 z m -25.23185,-17.58901 c 5.66899,-3.66735 -7.32214,-0.0507 0,0 z m 5.75123,2.86776 c -0.16076,-1.93882 -2.04969,0.86828 0,0 z m 28.74404,17.94071 c 4.62075,2.9161 26.98341,6.39157 12.98032,1.19576 -2.34305,0.49396 -25.96515,-6.68151 -12.98032,-1.19576 z m -45.63214,-35.53959 c -0.44924,-1.94445 -7.17236,-2.14674 0,0 z m 13.38139,7.79881 c 3.48252,-2.42893 -7.22821,-1.87347 0,0 z m 11.25564,6.90132 c 4.99744,-1.8841 -8.10698,-1.89298 0,0 z m -30.08208,-20.63041 c 5.42217,4.1582 21.86722,0.53286 8.30377,-2.48226 -6.17331,-3.29068 -20.08661,-5.54312 -10.60303,1.98429 l 2.29925,0.49801 1e-5,-4e-5 z m 37.70557,23.01331 c 2.25858,-3.848 -9.47139,-2.19744 0,0 z m -11.45758,-9.10594 c 13.25853,3.75057 -11.14922,-8.38447 -3.27126,-1.38011 l 1.74604,0.79011 1.52523,0.59009 -1e-5,-9e-5 z m 22.9715,13.27693 c 12.55659,0.1198 -11.34151,-1.73103 0,2e-5 l 0,-2e-5 z M 160.6668,717.80061 c -0.49043,-2.33892 -3.09864,0.19604 0,0 z m 75.29129,46.36367 c 0.33485,-4.22424 -4.0978,3.14336 0,0 z m -53.86302,-33.24126 c -0.75949,-2.22433 -3.92338,-0.0909 0,0 z m -20.23744,-14.58989 c 7.20874,-0.43287 -9.86927,-3.1764 0,0 z m -23.97394,-15.4965 c -0.89725,-3.45571 -7.84423,-6.21187 0,0 z m 62.93727,39.94185 c -1.32032,-1.50582 -0.62106,0.32939 0,0 z m 39.17436,24.03977 c -0.12564,-2.30106 -2.13357,0.87097 0,0 z m -42.64128,-27.6199 c 0.70515,-2.96476 -6.14687,-0.89765 0,0 z m -29.18428,-18.49573 c 5.36289,-0.57423 -8.59108,-3.62554 0,0 z m 49.3679,30.67603 c 8.35732,-3.31093 -8.14547,-1.61633 0,0 z m -25.67908,-17.4314 c 9.63181,1.24185 -11.4604,-6.55132 -2.11329,-0.69732 l 2.11328,0.69738 1e-5,-6e-5 z m 33.47498,20.58292 c 8.99243,-5.37598 6.02775,12.58878 15.25616,1.51765 9.10305,-6.64654 -7.86124,8.21719 3.35784,1.18507 8.11359,-5.42657 20.09763,2.57239 27.66841,5.18233 5.44441,-0.26746 10.73717,4.70774 16.31856,1.68097 10.74421,-2.89391 -21.01006,-4.29215 -12.68618,-9.42657 -9.83102,2.86126 -17.09462,-3.4111 -21.93216,-9.70822 -11.02752,-2.54642 -23.77786,-8.18431 -29.28144,-17.9433 -2.24389,-3.66413 3.24164,0.5162 -1.93703,-5.47332 -6.64496,-5.91027 -9.96301,-12.6193 -14.42376,-19.80364 -5.32894,-2.84285 -5.94976,-11.21062 -6.48848,-0.28052 0.0422,-6.89814 -6.43397,-11.54108 -8.01467,-9.61107 -0.0284,-6.64331 6.93074,-3.31328 2.05915,-8.22855 -1.04855,-6.88555 -4.50101,-14.06045 -5.53873,-21.83453 -1.61232,-3.7474 -0.22705,-11.77335 -5.50289,-3.29014 -1.92213,8.96547 -0.63797,-11.01755 2.35113,-4.42793 3.92331,-6.7241 -1.40852,-5.93326 -1.62695,-4.99958 2.55568,-5.6734 1.61757,-13.72076 -0.66684,-10.65075 1.36181,-6.01312 2.1514,-22.12997 -2.03819,-19.27386 2.53964,-6.28793 4.81633,-28.7723 -6.20852,-20.19974 -4.46815,0.0627 -12.20567,1.62195 -15.86317,3.44092 11.46782,6.32138 -1.15349,2.28287 -5.82166,1.27817 -0.60826,5.84916 -5.23198,3.31943 -11.00853,3.37678 9.22638,1.14151 -4.49284,9.4363 -9.78573,6.2142 -6.87398,3.28535 5.93243,11.48615 0.13791,14.02172 0.71213,3.82272 -10.53094,-1.38048 -9.64794,7.44756 -6.6733,-2.80731 -0.91889,10.47212 2.41976,5.98092 11.35004,3.07183 7.99015,10.07525 8.27919,16.7279 -1.84933,3.87652 -9.13028,-9.11189 -1.62159,-8.51035 -5.92377,-9.62298 -6.55275,-3.47828 -11.47521,0.99215 -1.14519,0.32466 12.55609,6.36068 3.95783,9.34534 7.56469,1.16722 7.77992,7.78705 9.31989,11.97602 4.54679,4.73574 3.61622,-5.22923 9.05661,0.462 -3.44274,-5.07027 -18.23549,-14.28586 -6.32534,-11.3302 -0.0637,-5.10301 -2.15406,-9.21796 1.49489,-9.11813 3.6135,-6.54403 -3.78445,16.13487 4.36057,7.81796 2.2547,-0.98451 2.81315,-6.55233 6.86586,0.52579 5.88636,5.79071 2.12618,9.9868 -6.17718,4.68454 1.48555,5.03954 11.10778,6.84048 9.29953,14.72133 1.91693,6.93139 4.59888,4.37844 6.93665,3.97771 1.83385,6.73464 2.87521,1.78252 2.96219,-1.42232 8.39668,1.79746 6.4299,6.76094 9.05717,10.22869 5.78602,2.61163 -8.28175,-17.70267 1.65185,-6.10837 10.45111,9.43577 3.91947,13.37459 -5.4594,11.86294 5.93608,-0.47954 7.85037,8.02514 15.27537,7.72635 6.77092,3.22108 11.35514,15.59272 -0.31576,10.44267 -4.04794,-3.6498 -18.37267,-8.15232 -6.67266,-1.21002 10.80611,5.00414 19.38868,7.99778 29.81075,14.27922 7.45872,5.32468 10.68115,11.42338 13.50816,12.63062 -6.26876,2.99418 -18.89155,-2.39094 -9.51838,-4.04129 -5.8463,-1.06495 -12.42195,-4.02143 -6.82212,3.26277 4.76165,3.97567 16.86985,3.55449 19.04043,4.00496 -1.83985,4.054 -4.99752,4.3764 0.0754,4.69083 -5.6594,3.01599 1.81475,3.48298 2.33921,5.20632 z m -11.57302,-32.68163 c -3.44322,-3.60091 -4.3335,-10.34557 -0.61144,-4.47677 1.90872,0.76651 6.11447,11.02191 0.61152,4.47677 l -8e-5,0 z m 37.68894,23.94069 c 2.14767,-0.13908 0.0624,1.63162 0,0 z m -43.12567,-32.76996 c -0.13208,-5.44409 1.24547,4.19909 0,0 z m -3.7458,-5.03981 c -4.33096,-8.3682 5.45993,2.36986 0,0 z M 159.1849,674.64919 c 2.54441,-0.67855 1.25181,4.35169 0,0 z m 36.12711,19.58212 c 1.5626,-5.86802 1.83631,4.92365 0,0 z M 169.7893,676.4843 c -1.79924,-3.23805 3.76345,3.03682 0,0 z m 21.9039,7.02164 c -4.10313,-9.19271 2.90492,-5.02131 0.90777,1.50661 l -0.90777,-1.50661 0,0 z m -37.77345,-25.19107 c -1.83442,-3.01589 -4.8689,-11.86498 -3.89197,-14.56641 0.88378,4.39955 9.35587,18.93344 4.15581,6.02057 -5.74654,-10.82439 6.86915,3.51349 8.16685,6.21333 0.60429,2.68579 -3.54545,-0.73377 -0.73368,5.56375 -5.1277,-7.1699 -3.02707,3.9605 -7.69701,-3.23124 z m -11.67411,-8.04423 c 0.48055,-7.01234 2.67248,4.80849 0,0 z m 5.25112,1.80762 c 2.5058,-5.2928 4.24883,7.37862 0,0 z m -12.63171,-9.7716 c -4.34631,-4.31893 -7.49154,-8.3002 0.20335,-2.68049 2.96499,0.11571 -6.58748,-9.05366 0.71404,-2.91177 7.67781,1.39992 3.79135,12.58873 -0.91739,5.59226 z m 6.63528,-0.17346 c 2.52402,-2.50122 1.33995,2.46216 0,0 z m 4.08278,1.30887 c -3.82653,-7.17245 4.64411,3.00698 0,0 z m -8.11632,-7.75638 c -12.63505,-11.24431 15.87673,5.87966 2.06419,2.08465 l -2.06427,-2.08455 8e-5,-10e-5 z m 36.20131,21.03373 c -5.46766,-3.27837 -1.44894,-23.07952 0.41565,-9.53695 5.31541,-1.71948 -0.29347,6.99404 3.67108,6.91339 -0.62481,5.49768 -2.39845,7.4742 -4.08673,2.62356 z m 13.39002,7.9138 c 0.53625,-5.96748 1.12858,4.07991 0,0 z m -2.32582,-2.29803 c 0.602,-2.54933 0.0622,3.00209 0,0 z m -44.78693,-30.34441 c -8.11718,-11.19924 23.59063,11.3285 5.19891,2.84055 -1.9218,-0.50263 -4.23418,-0.68209 -5.19891,-2.84055 z m 25.78469,13.67095 c -0.76815,-9.42995 1.71542,1.5631 -2.8e-4,-3e-5 l 2.8e-4,3e-5 z m 19.57654,12.55821 c 1.51499,-5.37149 0.11294,3.55337 0,0 z m -44.11779,-30.50335 c 4.82436,-1.03186 19.99283,8.47269 6.06333,2.71494 -1.54774,-1.7134 -4.84718,-0.93493 -6.06333,-2.71494 z m 41.42815,20.64796 c 0.51566,-9.64238 2.88011,-5.7596 0.0178,1.38023 l -0.0177,-1.38021 -7e-5,-2e-5 z m -37.83697,-24.00323 c 1.96566,-2.88337 -5.21802,-13.03626 1.03553,-3.64189 2.70211,2.14705 7.8236,3.59683 3.30179,4.50009 7.1116,6.2736 -1.73452,1.69999 -4.33732,-0.8582 z m 35.78791,20.99134 c 1.35799,-10.98414 1.19757,6.43532 0,0 z M 140.67465,614.2161 c 1.50145,-0.64165 0.79294,2.00056 0,0 z m 9.33501,5.55619 c 2.40242,-5.0411 4.43185,5.62221 0,0 z m 26.33173,14.648 c -0.0254,-1.93607 0.49677,2.81623 0,0 z m -1.5253,-3.37685 c -3.65476,-9.01654 3.39956,4.77382 0,0 z m -2.24404,-5.9116 c -0.61347,-3.72573 2.08499,4.68072 -1.1e-4,-10e-6 l 1.1e-4,10e-6 z m 3.65207,-5.93663 c -2.50793,-4.4196 3.16703,-19.47621 3.80029,-10.13823 -2.64705,7.27595 -0.76362,11.34628 1.08299,1.58717 3.41014,-7.68051 -0.73663,15.1561 -4.88334,8.55109 l 6e-5,-3e-5 z m 3.75305,-22.39166 c 1.09329,-1.34251 0.24266,1.6174 0,0 z m -6.26755,123.50134 c -1.48661,-1.29737 0.18668,0.82553 0,0 z m 12.91159,6.53145 c 7.18207,1.84278 7.14536,-1.11745 0.65425,-1.99689 -3.49141,-3.24795 -14.50805,-6.69302 -4.6476,-0.40302 0.65303,1.6542 2.71657,1.61566 3.99335,2.39991 z m -25.49992,-16.93691 c 3.95664,2.9505 14.90359,8.36218 5.63666,1.12301 3.1244,-3.63001 -5.9802,-5.5622 -2.96,-7.9904 -7.682,-4.70072 -6.06003,-4.28256 -0.67805,-4.13467 -9.23239,-4.12666 1.33263,-3.81797 0.83518,-5.93248 -3.55995,-0.70311 -17.68215,-6.27723 -9.37412,0.45788 -8.44567,-4.3062 -2.01263,1.60412 -4.56534,0.97927 -8.63625,-2.35475 7.69108,6.5776 -1.37161,4.36021 4.9546,3.92634 13.33611,10.05716 2.0947,4.15508 -1.48114,2.13204 8.04447,5.36372 10.38258,6.9821 z m 13.50395,7.7579 c 16.41943,5.29107 -8.04993,-6.46417 0,0 z m 69.12749,41.8775 c 0.21178,-3.25744 -2.2441,2.77876 0,0 z m 7.10501,2.99028 c 3.78823,-3.67074 0.15486,5.84709 6.2771,-0.89862 0.0662,-4.82913 -0.18852,-7.6815 -7.03545,-1.81528 -1.88748,1.04675 -2.73012,5.49743 0.75835,2.7139 z M 138.0736,691.69455 c -1.16346,-4.5734 -8.15502,-4.5497 0,0 z m 7.58682,4.97157 c -2.81732,-4.67127 -10.0522,-4.22903 0,0 z m 43.16176,26.02992 c 4.214,3.74297 19.35426,2.74638 5.1182,0.4606 -2.10847,-3.11749 -13.38848,-2.3672 -5.1182,-0.4606 z m 59.33313,36.64318 c 6.4857,-5.44226 -6.28392,2.42787 0,0 z m 13.48878,9.26941 c 0.0405,-1.74648 -2.79558,0.76464 0,0 z m 0.0207,-2.44507 c 7.18212,-7.60965 -6.95923,0.45008 -6e-5,0 l 6e-5,0 z M 119.41335,676.07251 c -6.12134,-8.73402 -3.80521,-12.65988 -9.7083,-19.79132 -1.1175,-5.45347 -10.12691,-17.82851 -4.65986,-4.71814 5.00751,7.66766 6.49553,19.53941 14.36816,24.50946 z m 139.99871,87.67202 c 13.21337,-8.54042 -5.42383,-3.72021 0,0 z m 10.08663,3.95133 c 6.61686,-5.6812 -4.18553,-1.18825 0,0 z M 135.82475,682.04053 c 1.89372,-2.8173 -4.89078,-0.36037 0,0 z m 131.56786,82.95746 c 6.4067,-4.13081 -1.4761,-3.49659 -1.16122,0.3799 l 1.16123,-0.3799 -1e-5,0 z m -86.94752,-54.8033 c -0.22024,-2.78933 -3.38321,0.23676 0,0 z m 5.37333,3.09182 c -1.70769,-3.45252 -2.62558,0.54232 0,0 z m 91.85437,54.50303 c 8.20777,-5.92103 -4.97546,-1.13362 -1.72287,1.1218 l 1.72287,-1.1218 0,0 z m -3.14299,-1.51909 c 6.68629,-5.60288 -7.05912,2.48296 0,0 z m 16.05836,10.69399 c 4.48925,-3.00689 -5.454,-0.97263 0,0 z M 139.94198,680.00895 c 6.01765,1.34827 24.04801,14.81986 13.41086,0.93169 -5.44793,-1.61267 -2.18064,-14.92966 -7.73756,-12.57274 3.72979,6.23086 3.06869,8.88292 -4.76223,4.95471 -9.84223,-4.80442 -5.53105,2.38093 -3.60754,4.36124 -2.62125,0.59566 3.4672,2.27501 2.69647,2.3251 z m -27.41625,-21.65184 c 1.07733,-4.4558 -9.91967,-24.51321 -5.19295,-10.05019 1.70622,3.02964 1.53274,8.77142 5.19295,10.05019 z m 50.32059,31.02373 c -3.09868,-2.59143 -0.14725,-0.36675 0,0 z m 7.63061,1.77577 c -0.004,-4.72006 -8.43452,-1.91672 0,0 z m 66.12531,41.68595 c -1.26119,-3.22491 -4.98523,-0.0748 1.2e-4,6e-5 l -1.2e-4,-6e-5 z m 3.17542,2.31955 c -0.46878,-1.80496 -1.83204,0.34842 0,0 z m 26.20988,16.50903 c 2.52083,-1.86232 -3.14571,-0.23785 0,0 z m -139.7672,-89.81787 c 7.2102,-2.79149 -7.7252,-1.99054 0,0 z m 104.56069,65.87388 c -0.0802,-4.66777 -4.5965,1.15801 0,0 z M 123.37159,655.21487 c 4.6315,-1.56445 -4.2845,-1.03043 0,0 z m 13.44309,6.51189 c -0.084,-1.53421 -1.42199,0.58069 0,0 z m 163.96589,100.54609 c 5.95561,-1.20749 19.52731,3.03133 21.72089,-1.5791 -7.23241,-0.17559 -25.0224,-5.1026 -25.86409,1.17577 l 1.58321,0.24941 2.55999,0.1539 0,2e-5 z M 141.08724,662.80346 c 0.10358,-4.72994 -3.68845,-0.17666 0,0 z m -35.3453,-24.51829 c -1.60517,-9.01185 -6.10505,-1.36391 0,0 z m 8.42857,2.11858 c 0.10358,-2.89373 -7.7147,-2.60378 0,0 z m 4.81668,2.36564 c -1.39233,-1.12781 -1.08982,1.42474 0,0 z m 30.30726,19.44212 c 1.42679,-1.31075 -3.37792,-0.97088 0,0 z m -33.5154,-24.7774 c -0.81467,-6.80658 -9.76216,-1.01982 0,0 z M 98.49913,626.22194 c -0.24576,-3.14135 -1.68395,1.185 0,0 z m 2.57033,-1.94114 c -0.41934,-3.72484 -2.20681,0.47393 0,0 z m 14.20171,8.47715 c 6.00526,-2.35894 -10.9386,-4.87938 -1.22705,-0.44568 l 1.22705,0.44568 z m 190.06772,117.40168 c 3.84367,-3.52399 -4.88507,-1.08955 0,0 z m 22.96149,11.90233 c 1.54034,-4.55616 -3.87815,0.59984 0,0 z M 116.72255,625.31436 c 0.63263,-4.4074 -4.76093,0.87515 0,0 z M 96.51697,611.77679 c -1.08545,-6.2224 -0.93697,-17.14448 9.44531,-13.45339 -13.85863,2.75149 9.59172,17.22489 6.63038,5.79763 5.82722,0.28532 11.39941,-3.4439 8.34133,2.21541 11.48136,-1.26805 19.44122,-11.22402 30.53145,-9.82888 8.63876,-1.14321 18.08407,-2.01023 27.39343,-5.48761 7.65405,-0.55141 15.02212,-8.79216 10.82672,-13.67663 -10.43793,-0.88318 -21.36422,0.42279 -32.90103,2.71592 -12.78424,2.65766 -24.39665,7.70703 -37.29565,9.87445 -12.57288,1.68893 2.52893,4.6534 -1.07245,5.31384 -6.56071,2.27639 7.82417,3.81144 -0.85054,6.21118 -5.35735,-1.01864 -10.93365,-2.85936 -8.64523,-8.50502 -12.04372,1.56282 -22.626702,6.56137 -13.11144,18.8174 l 0.70771,0.006 1e-5,-3.7e-4 z m 29.02098,-14.78026 c 2.82383,-10.40273 15.12861,8.56018 4.62841,1.38174 -1.25417,-0.93861 -3.31683,-1.70434 -4.62841,-1.38174 z m 0.54938,-5.04352 c 4.07559,-3.03626 2.16655,1.70225 0,0 z m 5.17504,0.0821 c 0.36791,-4.78681 11.84658,2.53411 1.89271,1.72321 l -1.89271,-1.72321 0,0 z m 7.07899,-2.84625 c 2.58515,-3.02058 0.74308,2.6868 0,0 z m 1.81095,-1.21267 c 4.30456,-5.17211 24.37706,-3.30091 9.68468,-0.50431 -3.93808,-2.96482 -6.95681,1.74816 -9.68468,0.50431 z m 26.19509,-4.03792 c -0.6548,-14.12783 13.01392,5.02055 0,0 z m 7.43271,-0.0406 c 2.71742,-7.1206 10.54533,-2.85732 1.25749,-1.43088 0.20169,0.75774 -0.27235,3.67603 -1.25749,1.43088 z m -59.9885,37.76183 c 8.11934,-4.97196 -8.61959,-4.31355 0,0 l 0,0 z m 6.00342,1.66823 c 2.8467,-3.02695 -6.18551,-1.22775 0,0 z m -17.68885,-12.55396 c 4.63938,-3.56389 -5.49007,-1.355 0,0 z m 239.74743,149.98596 c 0.13412,-4.13481 -3.54601,1.86326 0,0 z m -24.36135,-16.62481 c 0.69274,-4.76047 -3.13064,0.41503 0,0 z m 31.06038,18.22802 c 6.48659,0.0219 19.65382,-2.01443 5.54022,-2.00797 -2.21473,0.34538 -12.90484,0.27131 -5.54021,2.00793 l -1e-5,4e-5 z M 125.07573,620.40984 c 5.24962,-0.36058 8.21333,-5.79072 -1.01526,-5.47858 -14.30275,-1.48075 12.61908,4.89733 -1.83482,3.07361 -1.94216,1.28616 2.73727,2.76083 2.85008,2.40497 z m 4.6234,2.34009 c -0.54813,-3.37052 -1.62337,1.79055 0,0 z m 5.4843,-14.62408 c 2.27805,-2.82559 -3.15232,-0.75539 0,0 z m -17.45867,-29.1831 c 9.36897,-3.18727 22.1809,-6.76877 26.60461,1.56936 -4.50209,-5.41861 -1.81687,-10.75292 2.43536,-2.83049 6.01271,8.01582 9.02279,-3.64581 5.11204,-6.33447 4.45663,5.5374 9.52554,8.15404 2.98392,0.34999 7.10859,-8.55091 -14.23375,1.11973 -19.08472,1.02235 -2.33398,1.0476 -24.09649,5.55004 -18.05121,6.22326 z m 5.49075,-10.51575 c 5.3432,-4.03287 18.47967,2.39888 10.05007,-4.00797 -0.82415,-0.72798 -18.46084,4.85841 -10.05007,4.00797 z m 19.47972,0.80421 c 6.2535,0.15958 -2.6974,-8.40096 4.75442,-4.52191 -1.22384,-3.99812 -8.67602,-4.7466 -12.31931,-6.34395 -2.06064,3.6554 4.1944,10.91499 7.56489,10.86586 z M 126.63121,551.5485 c 2.16339,-2.93274 -3.79151,1.48682 0,0 z m 7.96164,1.90562 c 10.07752,-1.33664 -2.56881,-4.33987 -2.03068,-0.10738 l 2.03068,0.10738 0,-2e-5 z m -14.86601,-11.6323 c -7.0957,-9.26281 13.34441,1.55705 6.13518,-8.14144 -6.06775,-4.83175 -11.89851,5.43738 -6.13518,8.14144 z m 91.06197,49.0486 c 3.25447,-5.76933 -13.43642,-7.77672 -2.19275,-2.04474 1.0352,0.34593 0.80091,2.44376 2.19275,2.04474 z"
       id="path2900" />
    <g
       id="g3100"
       style="font-size:40px;font-style:normal;font-weight:normal;opacity:0.566;fill:#000000;fill-opacity:1;stroke:none;font-family:Bitstream Vera Sans;filter:url(#filter3930)"
       transform="matrix(1.4609625,0,0,1.4609625,22.600199,497.12128)">
      <path
         id="path3102"
         style="font-size:144px;fill:#000000;font-family:High Tower Text;-inkscape-font-specification:High Tower Text"
         d="m 229.85182,43.77803 c -0.79695,3.140714 -1.28913,8.414146 -1.47656,15.820313 -7e-5,1.453199 -0.65632,2.179761 -1.96875,2.179687 -1.31257,7.4e-5 -2.22663,-0.632738 -2.74219,-1.898437 -1.40631,-3.421796 -2.74225,-5.812419 -4.00781,-7.171875 -1.50006,-1.593666 -3.49225,-2.554603 -5.97656,-2.882813 -2.67193,-0.421789 -9.32818,-0.632726 -19.96875,-0.632812 -2.43754,8.6e-5 -4.03129,0.257898 -4.78125,0.773437 -0.46879,0.32821 -0.70316,1.031335 -0.70313,2.109375 l 0,31.851563 c -3e-5,1.078175 0.67966,1.5938 2.03906,1.546875 4.17184,-0.04682 10.21871,-0.328075 18.14063,-0.84375 1.54682,-0.187449 2.58979,-0.691355 3.12891,-1.511719 0.539,-0.820259 1.06634,-2.941351 1.58203,-6.363281 0.32806,-1.87494 1.42963,-2.601502 3.30468,-2.179688 1.59369,0.328186 2.27338,1.054747 2.03907,2.179688 -1.31256,6.375052 -1.73444,14.671919 -1.26563,24.890627 0.0468,1.21878 -0.72662,1.87503 -2.32031,1.96875 -1.31256,0.14065 -2.13287,-0.56247 -2.46094,-2.10938 -1.2188,-5.859333 -3.48052,-8.988236 -6.78515,-9.386716 -3.30474,-0.398394 -8.68364,-0.597612 -16.13672,-0.597656 -0.84379,4.4e-5 -1.26566,0.304731 -1.26563,0.914062 l 0,31.64063 c -3e-5,2.34375 0.86716,3.9375 2.60156,4.78125 1.35934,0.70313 4.28903,1.33594 8.78907,1.89843 2.29683,0.23438 3.30464,1.24219 3.02343,3.02344 -0.28129,1.54688 -2.34379,2.15625 -6.1875,1.82813 -11.1094,-0.89063 -20.27345,-0.84375 -27.49218,0.14062 -2.01564,0.28125 -3.02345,-0.53906 -3.02344,-2.46094 -1e-5,-1.21874 1.0078,-1.92187 3.02344,-2.10937 4.59373,-0.51562 6.8906,-4.54687 6.89062,-12.09375 l 0,-60.187502 c -2e-5,-3.093671 -0.5508,-5.472575 -1.65234,-7.136719 -1.10158,-1.663977 -3.15236,-3.175695 -6.15235,-4.535156 -1.87501,-0.843661 -2.57813,-1.992098 -2.10937,-3.445313 0.23436,-0.890532 0.60936,-1.382719 1.125,-1.476562 0.46874,-0.140532 1.71092,-0.04678 3.72656,0.28125 2.95311,0.468842 9.91404,0.703217 20.88281,0.703125 12.93746,9.2e-5 24.11713,-0.281158 33.53907,-0.84375 3.14055,-0.187407 4.71086,0.07041 4.71093,0.773437 -7e-5,0.187592 -0.0235,0.375092 -0.0703,0.5625 z"
         inkscape:connector-curvature="0" />
      <path
         id="path3104"
         style="font-size:144px;fill:#000000;font-family:High Tower Text;-inkscape-font-specification:High Tower Text"
         d="m 275.55495,133.14522 c -4e-5,1.875 -1.05473,2.69531 -3.16407,2.46094 -6.46877,-0.60938 -14.48439,-0.51563 -24.04687,0.28125 -1.92189,0.18749 -3.10548,0.14062 -3.55078,-0.14063 -0.44532,-0.28125 -0.66798,-1.05469 -0.66797,-2.32031 -1e-5,-1.125 1.27733,-2.07422 3.83203,-2.84766 2.55467,-0.77343 3.83202,-3.08202 3.83203,-6.92578 l 0,-63.632812 c -1e-5,-3.796796 -0.55079,-6.585856 -1.65234,-8.367188 -1.10158,-1.781164 -3.03517,-3.163975 -5.80078,-4.148437 -1.45313,-0.515537 -2.1797,-1.242099 -2.17969,-2.179688 -1e-5,-1.406158 1.05468,-2.460845 3.16406,-3.164062 3.18749,-1.031156 6.49217,-2.624904 9.91406,-4.78125 2.81248,-1.687401 4.59373,-2.53115 5.34375,-2.53125 1.73435,1e-4 2.60154,1.195412 2.60157,3.585937 -3e-5,-0.187403 -0.0938,2.156345 -0.28125,7.03125 -0.14065,4.64071 -0.18753,9.211018 -0.14063,13.710938 l 0.28125,62.789062 c -2e-5,2.85939 0.7031,4.9336 2.10938,6.22266 1.40622,1.28906 3.82028,2.14453 7.24218,2.5664 2.10934,0.23438 3.16403,1.03126 3.16407,2.39063 z"
         inkscape:connector-curvature="0" />
      <path
         id="path3106"
         style="font-size:144px;fill:#000000;font-family:High Tower Text;-inkscape-font-specification:High Tower Text"
         d="m 339.67995,128.43428 c -7e-5,0.98438 -1.79303,2.47266 -5.37891,4.46484 -3.58599,1.99219 -6.45708,2.98828 -8.61328,2.98829 -1.82817,-10e-6 -3.44536,-0.89063 -4.85156,-2.67188 -1.40629,-1.78125 -2.39067,-2.67187 -2.95313,-2.67187 -0.42191,0 -2.64847,0.96094 -6.67969,2.88281 -4.03128,1.92187 -8.08596,2.88281 -12.16406,2.88281 -3.84377,0 -7.0547,-1.125 -9.63281,-3.375 -2.81251,-2.48437 -4.21876,-5.85937 -4.21875,-10.125 -1e-5,-8.10935 9.28123,-13.92185 27.84375,-17.4375 3.18746,-0.60934 4.80465,-1.89841 4.85156,-3.86719 l 0.14063,-4.499997 c 0.28121,-7.687454 -3.11723,-11.5312 -10.19532,-11.53125 -2.01565,5e-5 -3.9258,1.804735 -5.73046,5.414062 -1.80471,3.609416 -4.39456,5.554727 -7.76954,5.835938 -3.84376,0.375038 -5.76563,-1.242148 -5.76562,-4.851563 -1e-5,-2.249954 2.85936,-4.874951 8.57812,-7.875 5.99998,-3.14057 11.7656,-4.710881 17.29688,-4.710937 9.51558,5.6e-5 14.22651,4.523489 14.13281,13.570312 l -0.28125,28.968755 c -0.0469,3.04688 1.24214,4.57032 3.86719,4.57031 0.51557,1e-5 1.49994,-0.11718 2.95312,-0.35156 1.45307,-0.23437 2.29682,-0.35156 2.53125,-0.35157 1.35932,1e-5 2.039,0.91407 2.03907,2.74219 z M 318.0237,112.40303 c 0.0468,-1.17185 -0.2227,-1.94529 -0.8086,-2.32031 -0.58597,-0.37498 -1.51175,-0.44529 -2.77734,-0.21094 -11.2969,2.01565 -16.94533,5.69533 -16.94531,11.03906 -2e-5,5.39064 2.92966,8.08595 8.78906,8.08594 2.34372,1e-5 4.75778,-0.44531 7.24219,-1.33594 2.90621,-1.03124 4.35933,-2.27342 4.35937,-3.72656 z"
         inkscape:connector-curvature="0" />
      <path
         id="path3108"
         style="font-size:144px;fill:#000000;font-family:High Tower Text;-inkscape-font-specification:High Tower Text"
         d="m 392.13307,120.06709 c -5e-5,4.96876 -1.9102,8.91798 -5.73047,11.84766 -3.82035,2.92969 -9.03519,4.39453 -15.64453,4.39453 -4.40627,0 -8.81252,-0.46875 -13.21875,-1.40625 -3.79688,-0.84375 -6.00001,-1.61719 -6.60937,-2.32031 -0.37501,-0.65625 -0.56251,-3.86718 -0.5625,-9.63281 -1e-5,-2.48436 0.56249,-3.77343 1.6875,-3.86719 1.12499,-0.14061 2.08592,0.46876 2.88281,1.82812 3.51561,6.14064 9.18748,9.21095 17.01562,9.21094 6.60934,1e-5 9.91403,-2.29687 9.91407,-6.89062 -4e-5,-2.01562 -0.75004,-3.70311 -2.25,-5.0625 -1.64066,-1.54686 -4.82816,-3.35155 -9.5625,-5.41407 -6.84377,-3.04685 -11.41408,-5.71872 -13.71094,-8.01562 -2.48439,-2.43747 -3.72657,-5.718716 -3.72656,-9.843752 -1e-5,-5.062455 1.9453,-8.999951 5.83593,-11.8125 3.60936,-2.718695 8.43748,-4.078069 14.48438,-4.078125 3.79684,5.6e-5 7.26559,0.304743 10.40625,0.914062 3.37496,0.60943 5.13277,1.359429 5.27344,2.25 0.37495,2.625051 1.14839,6.421922 2.32031,11.390625 0.14058,0.609416 -0.51567,1.101603 -1.96875,1.476563 -1.54692,0.328165 -2.57817,0.07035 -3.09375,-0.773438 -3.70317,-6.046828 -8.39066,-9.070262 -14.0625,-9.070312 -6.4219,5e-5 -9.63283,2.062548 -9.63281,6.1875 -2e-5,2.296916 0.86716,4.12504 2.60156,5.484375 1.54685,1.171912 5.17966,3.000035 10.89844,5.484372 5.99996,2.57816 10.07808,4.89847 12.23437,6.96094 2.81245,2.6719 4.2187,6.25783 4.21875,10.75781 z"
         inkscape:connector-curvature="0" />
      <path
         id="path3110"
         style="font-size:144px;fill:#000000;font-family:High Tower Text;-inkscape-font-specification:High Tower Text"
         d="m 473.69557,132.72334 c -7e-5,1.64063 -1.10163,2.50782 -3.30469,2.60157 -3.28131,0.0469 -7.57037,0.28124 -12.86718,0.70312 -2.62506,0.51562 -4.50006,0.1875 -5.625,-0.98437 -7.4063,-7.96875 -13.68754,-16.31249 -18.84375,-25.03125 -0.42191,-0.74998 -0.96097,-1.12498 -1.61719,-1.125 -0.79691,2e-5 -2.17972,0.70315 -4.14844,2.10937 -2.20315,1.21877 -3.30471,2.95315 -3.30469,5.20313 -2e-5,1.59376 0.0469,3.89064 0.14063,6.89062 0.0937,3.00001 0.84372,4.96876 2.25,5.90625 0.98435,0.65626 3.25778,1.17188 6.82031,1.54688 2.20309,0.28125 3.30465,1.10156 3.30469,2.46093 -4e-5,1.07813 -0.17582,1.7461 -0.52734,2.00391 -0.3516,0.25781 -1.27738,0.31641 -2.77735,0.17578 -4.68753,-0.42187 -12.60939,-0.1875 -23.76562,0.70313 -2.81251,0.23437 -4.33595,-0.11719 -4.57032,-1.05469 -0.0937,-0.32813 -0.14063,-0.79688 -0.14062,-1.40625 -1e-5,-1.45312 1.42968,-2.55469 4.28906,-3.30469 2.57811,-0.65624 3.86718,-3.67968 3.86719,-9.07031 l 0,-61.453127 c -1e-5,-3.843671 -0.37501,-6.515543 -1.125,-8.015625 -1.03126,-1.92179 -3.18751,-3.421788 -6.46875,-4.5 -1.54688,-0.515536 -2.32032,-1.242098 -2.32031,-2.179688 -1e-5,-1.359283 1.10155,-2.413969 3.30468,-3.164062 3.51562,-1.17178 6.86718,-2.788966 10.05469,-4.851563 2.57811,-1.6874 4.17186,-2.531149 4.78125,-2.53125 1.92185,1.01e-4 2.88279,1.21885 2.88281,3.65625 -2e-5,-0.328027 -0.0235,1.992283 -0.0703,6.960938 -0.0469,3.421962 -0.0703,8.015707 -0.0703,13.78125 l 0.14062,44.015627 c -2e-5,1.21878 0.3281,1.82815 0.98438,1.82812 0.7031,3e-5 1.78122,-0.60934 3.23437,-1.82812 3.8906,-3.046842 8.67184,-7.031213 14.34375,-11.953127 1.12496,-1.17183 1.68746,-2.109329 1.6875,-2.8125 -4e-5,-1.265577 -1.89848,-2.156201 -5.69531,-2.671875 -1.64066,-0.18745 -2.4141,-1.101512 -2.32031,-2.742188 0.14059,-1.64057 0.9609,-2.343695 2.46094,-2.109375 3.37495,0.468805 8.29682,0.726617 14.76562,0.773438 4.49994,0.04693 8.9765,0.07037 13.42969,0.07031 1.45306,0.04693 2.17962,0.914116 2.17969,2.601563 -7e-5,1.5938 -1.14851,2.460986 -3.44532,2.601562 -3.60943,0.140674 -7.00787,0.960986 -10.19531,2.460938 -4.45317,2.015669 -9.21098,5.554728 -14.27344,10.617187 -0.37504,0.281286 -0.56254,0.632847 -0.5625,1.054687 -4e-5,0.65629 0.79684,2.2266 2.39063,4.71094 5.85933,8.90627 11.39057,15.63283 16.59375,20.17969 3.32806,2.85938 6.44525,4.28907 9.35156,4.28906 2.15618,1e-5 3.49212,0.15235 4.00781,0.45703 0.51556,0.30469 0.77337,1.11329 0.77344,2.42578 z"
         inkscape:connector-curvature="0" />
    </g>
    <g
       transform="matrix(1.4609625,0,0,1.4609625,10.02877,485.97842)"
       style="font-size:40px;font-style:normal;font-weight:normal;fill:#ffffff;fill-opacity:1;stroke:none;font-family:Bitstream Vera Sans"
       id="text3850">
      <path
         inkscape:connector-curvature="0"
         d="m 229.85182,43.77803 c -0.79695,3.140714 -1.28913,8.414146 -1.47656,15.820313 -7e-5,1.453199 -0.65632,2.179761 -1.96875,2.179687 -1.31257,7.4e-5 -2.22663,-0.632738 -2.74219,-1.898437 -1.40631,-3.421796 -2.74225,-5.812419 -4.00781,-7.171875 -1.50006,-1.593666 -3.49225,-2.554603 -5.97656,-2.882813 -2.67193,-0.421789 -9.32818,-0.632726 -19.96875,-0.632812 -2.43754,8.6e-5 -4.03129,0.257898 -4.78125,0.773437 -0.46879,0.32821 -0.70316,1.031335 -0.70313,2.109375 l 0,31.851563 c -3e-5,1.078175 0.67966,1.5938 2.03906,1.546875 4.17184,-0.04682 10.21871,-0.328075 18.14063,-0.84375 1.54682,-0.187449 2.58979,-0.691355 3.12891,-1.511719 0.539,-0.820259 1.06634,-2.941351 1.58203,-6.363281 0.32806,-1.87494 1.42963,-2.601502 3.30468,-2.179688 1.59369,0.328186 2.27338,1.054747 2.03907,2.179688 -1.31256,6.375052 -1.73444,14.671919 -1.26563,24.890627 0.0468,1.21878 -0.72662,1.87503 -2.32031,1.96875 -1.31256,0.14065 -2.13287,-0.56247 -2.46094,-2.10938 -1.2188,-5.859333 -3.48052,-8.988236 -6.78515,-9.386716 -3.30474,-0.398394 -8.68364,-0.597612 -16.13672,-0.597656 -0.84379,4.4e-5 -1.26566,0.304731 -1.26563,0.914062 l 0,31.64063 c -3e-5,2.34375 0.86716,3.9375 2.60156,4.78125 1.35934,0.70313 4.28903,1.33594 8.78907,1.89843 2.29683,0.23438 3.30464,1.24219 3.02343,3.02344 -0.28129,1.54688 -2.34379,2.15625 -6.1875,1.82813 -11.1094,-0.89063 -20.27345,-0.84375 -27.49218,0.14062 -2.01564,0.28125 -3.02345,-0.53906 -3.02344,-2.46094 -1e-5,-1.21874 1.0078,-1.92187 3.02344,-2.10937 4.59373,-0.51562 6.8906,-4.54687 6.89062,-12.09375 l 0,-60.187502 c -2e-5,-3.093671 -0.5508,-5.472575 -1.65234,-7.136719 -1.10158,-1.663977 -3.15236,-3.175695 -6.15235,-4.535156 -1.87501,-0.843661 -2.57813,-1.992098 -2.10937,-3.445313 0.23436,-0.890532 0.60936,-1.382719 1.125,-1.476562 0.46874,-0.140532 1.71092,-0.04678 3.72656,0.28125 2.95311,0.468842 9.91404,0.703217 20.88281,0.703125 12.93746,9.2e-5 24.11713,-0.281158 33.53907,-0.84375 3.14055,-0.187407 4.71086,0.07041 4.71093,0.773437 -7e-5,0.187592 -0.0235,0.375092 -0.0703,0.5625 z"
         style="font-size:144px;fill:#ffffff;font-family:High Tower Text;-inkscape-font-specification:High Tower Text"
         id="path2830" />
      <path
         inkscape:connector-curvature="0"
         d="m 275.55495,133.14522 c -4e-5,1.875 -1.05473,2.69531 -3.16407,2.46094 -6.46877,-0.60938 -14.48439,-0.51563 -24.04687,0.28125 -1.92189,0.18749 -3.10548,0.14062 -3.55078,-0.14063 -0.44532,-0.28125 -0.66798,-1.05469 -0.66797,-2.32031 -1e-5,-1.125 1.27733,-2.07422 3.83203,-2.84766 2.55467,-0.77343 3.83202,-3.08202 3.83203,-6.92578 l 0,-63.632812 c -1e-5,-3.796796 -0.55079,-6.585856 -1.65234,-8.367188 -1.10158,-1.781164 -3.03517,-3.163975 -5.80078,-4.148437 -1.45313,-0.515537 -2.1797,-1.242099 -2.17969,-2.179688 -1e-5,-1.406158 1.05468,-2.460845 3.16406,-3.164062 3.18749,-1.031156 6.49217,-2.624904 9.91406,-4.78125 2.81248,-1.687401 4.59373,-2.53115 5.34375,-2.53125 1.73435,1e-4 2.60154,1.195412 2.60157,3.585937 -3e-5,-0.187403 -0.0938,2.156345 -0.28125,7.03125 -0.14065,4.64071 -0.18753,9.211018 -0.14063,13.710938 l 0.28125,62.789062 c -2e-5,2.85939 0.7031,4.9336 2.10938,6.22266 1.40622,1.28906 3.82028,2.14453 7.24218,2.5664 2.10934,0.23438 3.16403,1.03126 3.16407,2.39063 z"
         style="font-size:144px;fill:#ffffff;font-family:High Tower Text;-inkscape-font-specification:High Tower Text"
         id="path2832" />
      <path
         inkscape:connector-curvature="0"
         d="m 339.67995,128.43428 c -7e-5,0.98438 -1.79303,2.47266 -5.37891,4.46484 -3.58599,1.99219 -6.45708,2.98828 -8.61328,2.98829 -1.82817,-10e-6 -3.44536,-0.89063 -4.85156,-2.67188 -1.40629,-1.78125 -2.39067,-2.67187 -2.95313,-2.67187 -0.42191,0 -2.64847,0.96094 -6.67969,2.88281 -4.03128,1.92187 -8.08596,2.88281 -12.16406,2.88281 -3.84377,0 -7.0547,-1.125 -9.63281,-3.375 -2.81251,-2.48437 -4.21876,-5.85937 -4.21875,-10.125 -1e-5,-8.10935 9.28123,-13.92185 27.84375,-17.4375 3.18746,-0.60934 4.80465,-1.89841 4.85156,-3.86719 l 0.14063,-4.499997 c 0.28121,-7.687454 -3.11723,-11.5312 -10.19532,-11.53125 -2.01565,5e-5 -3.9258,1.804735 -5.73046,5.414062 -1.80471,3.609416 -4.39456,5.554727 -7.76954,5.835938 -3.84376,0.375038 -5.76563,-1.242148 -5.76562,-4.851563 -1e-5,-2.249954 2.85936,-4.874951 8.57812,-7.875 5.99998,-3.14057 11.7656,-4.710881 17.29688,-4.710937 9.51558,5.6e-5 14.22651,4.523489 14.13281,13.570312 l -0.28125,28.968755 c -0.0469,3.04688 1.24214,4.57032 3.86719,4.57031 0.51557,1e-5 1.49994,-0.11718 2.95312,-0.35156 1.45307,-0.23437 2.29682,-0.35156 2.53125,-0.35157 1.35932,1e-5 2.039,0.91407 2.03907,2.74219 z M 318.0237,112.40303 c 0.0468,-1.17185 -0.2227,-1.94529 -0.8086,-2.32031 -0.58597,-0.37498 -1.51175,-0.44529 -2.77734,-0.21094 -11.2969,2.01565 -16.94533,5.69533 -16.94531,11.03906 -2e-5,5.39064 2.92966,8.08595 8.78906,8.08594 2.34372,1e-5 4.75778,-0.44531 7.24219,-1.33594 2.90621,-1.03124 4.35933,-2.27342 4.35937,-3.72656 z"
         style="font-size:144px;fill:#ffffff;font-family:High Tower Text;-inkscape-font-specification:High Tower Text"
         id="path2834" />
      <path
         inkscape:connector-curvature="0"
         d="m 392.13307,120.06709 c -5e-5,4.96876 -1.9102,8.91798 -5.73047,11.84766 -3.82035,2.92969 -9.03519,4.39453 -15.64453,4.39453 -4.40627,0 -8.81252,-0.46875 -13.21875,-1.40625 -3.79688,-0.84375 -6.00001,-1.61719 -6.60937,-2.32031 -0.37501,-0.65625 -0.56251,-3.86718 -0.5625,-9.63281 -1e-5,-2.48436 0.56249,-3.77343 1.6875,-3.86719 1.12499,-0.14061 2.08592,0.46876 2.88281,1.82812 3.51561,6.14064 9.18748,9.21095 17.01562,9.21094 6.60934,1e-5 9.91403,-2.29687 9.91407,-6.89062 -4e-5,-2.01562 -0.75004,-3.70311 -2.25,-5.0625 -1.64066,-1.54686 -4.82816,-3.35155 -9.5625,-5.41407 -6.84377,-3.04685 -11.41408,-5.71872 -13.71094,-8.01562 -2.48439,-2.43747 -3.72657,-5.718716 -3.72656,-9.843752 -1e-5,-5.062455 1.9453,-8.999951 5.83593,-11.8125 3.60936,-2.718695 8.43748,-4.078069 14.48438,-4.078125 3.79684,5.6e-5 7.26559,0.304743 10.40625,0.914062 3.37496,0.60943 5.13277,1.359429 5.27344,2.25 0.37495,2.625051 1.14839,6.421922 2.32031,11.390625 0.14058,0.609416 -0.51567,1.101603 -1.96875,1.476563 -1.54692,0.328165 -2.57817,0.07035 -3.09375,-0.773438 -3.70317,-6.046828 -8.39066,-9.070262 -14.0625,-9.070312 -6.4219,5e-5 -9.63283,2.062548 -9.63281,6.1875 -2e-5,2.296916 0.86716,4.12504 2.60156,5.484375 1.54685,1.171912 5.17966,3.000035 10.89844,5.484372 5.99996,2.57816 10.07808,4.89847 12.23437,6.96094 2.81245,2.6719 4.2187,6.25783 4.21875,10.75781 z"
         style="font-size:144px;fill:#ffffff;font-family:High Tower Text;-inkscape-font-specification:High Tower Text"
         id="path2836" />
      <path
         inkscape:connector-curvature="0"
         d="m 473.69557,132.72334 c -7e-5,1.64063 -1.10163,2.50782 -3.30469,2.60157 -3.28131,0.0469 -7.57037,0.28124 -12.86718,0.70312 -2.62506,0.51562 -4.50006,0.1875 -5.625,-0.98437 -7.4063,-7.96875 -13.68754,-16.31249 -18.84375,-25.03125 -0.42191,-0.74998 -0.96097,-1.12498 -1.61719,-1.125 -0.79691,2e-5 -2.17972,0.70315 -4.14844,2.10937 -2.20315,1.21877 -3.30471,2.95315 -3.30469,5.20313 -2e-5,1.59376 0.0469,3.89064 0.14063,6.89062 0.0937,3.00001 0.84372,4.96876 2.25,5.90625 0.98435,0.65626 3.25778,1.17188 6.82031,1.54688 2.20309,0.28125 3.30465,1.10156 3.30469,2.46093 -4e-5,1.07813 -0.17582,1.7461 -0.52734,2.00391 -0.3516,0.25781 -1.27738,0.31641 -2.77735,0.17578 -4.68753,-0.42187 -12.60939,-0.1875 -23.76562,0.70313 -2.81251,0.23437 -4.33595,-0.11719 -4.57032,-1.05469 -0.0937,-0.32813 -0.14063,-0.79688 -0.14062,-1.40625 -1e-5,-1.45312 1.42968,-2.55469 4.28906,-3.30469 2.57811,-0.65624 3.86718,-3.67968 3.86719,-9.07031 l 0,-61.453127 c -1e-5,-3.843671 -0.37501,-6.515543 -1.125,-8.015625 -1.03126,-1.92179 -3.18751,-3.421788 -6.46875,-4.5 -1.54688,-0.515536 -2.32032,-1.242098 -2.32031,-2.179688 -1e-5,-1.359283 1.10155,-2.413969 3.30468,-3.164062 3.51562,-1.17178 6.86718,-2.788966 10.05469,-4.851563 2.57811,-1.6874 4.17186,-2.531149 4.78125,-2.53125 1.92185,1.01e-4 2.88279,1.21885 2.88281,3.65625 -2e-5,-0.328027 -0.0235,1.992283 -0.0703,6.960938 -0.0469,3.421962 -0.0703,8.015707 -0.0703,13.78125 l 0.14062,44.015627 c -2e-5,1.21878 0.3281,1.82815 0.98438,1.82812 0.7031,3e-5 1.78122,-0.60934 3.23437,-1.82812 3.8906,-3.046842 8.67184,-7.031213 14.34375,-11.953127 1.12496,-1.17183 1.68746,-2.109329 1.6875,-2.8125 -4e-5,-1.265577 -1.89848,-2.156201 -5.69531,-2.671875 -1.64066,-0.18745 -2.4141,-1.101512 -2.32031,-2.742188 0.14059,-1.64057 0.9609,-2.343695 2.46094,-2.109375 3.37495,0.468805 8.29682,0.726617 14.76562,0.773438 4.49994,0.04693 8.9765,0.07037 13.42969,0.07031 1.45306,0.04693 2.17962,0.914116 2.17969,2.601563 -7e-5,1.5938 -1.14851,2.460986 -3.44532,2.601562 -3.60943,0.140674 -7.00787,0.960986 -10.19531,2.460938 -4.45317,2.015669 -9.21098,5.554728 -14.27344,10.617187 -0.37504,0.281286 -0.56254,0.632847 -0.5625,1.054687 -4e-5,0.65629 0.79684,2.2266 2.39063,4.71094 5.85933,8.90627 11.39057,15.63283 16.59375,20.17969 3.32806,2.85938 6.44525,4.28907 9.35156,4.28906 2.15618,1e-5 3.49212,0.15235 4.00781,0.45703 0.51556,0.30469 0.77337,1.11329 0.77344,2.42578 z"
         style="font-size:144px;fill:#ffffff;font-family:High Tower Text;-inkscape-font-specification:High Tower Text"
         id="path2838" />
    </g>
    <text
       sodipodi:linespacing="125%"
       id="text3112"
       y="745.79071"
       x="699.61829"
       style="font-size:40px;font-style:normal;font-weight:normal;line-height:125%;letter-spacing:0px;word-spacing:0px;opacity:0.59600004;fill:#000000;fill-opacity:1;stroke:none;filter:url(#filter3922);font-family:Sans"
       xml:space="preserve"><tspan
         style="text-align:end;text-anchor:end;fill:#000000"
         y="745.79071"
         x="699.61829"
         id="tspan3114"
         sodipodi:role="line">A python web</tspan><tspan
         style="text-align:end;text-anchor:end;fill:#000000"
         id="tspan3116"
         y="795.79071"
         x="699.61829"
         sodipodi:role="line">Framework</tspan></text>
    <text
       xml:space="preserve"
       style="font-size:40px;font-style:normal;font-weight:normal;line-height:125%;letter-spacing:0px;word-spacing:0px;fill:#000000;fill-opacity:1;stroke:none;font-family:Sans"
       x="695.61829"
       y="735.79071"
       id="text3092"
       sodipodi:linespacing="125%"><tspan
         sodipodi:role="line"
         id="tspan3094"
         x="695.61829"
         y="735.79071"
         style="text-align:end;text-anchor:end;fill:#ffffff">A python web</tspan><tspan
         sodipodi:role="line"
         x="695.61829"
         y="785.79071"
         id="tspan3096"
         style="text-align:end;text-anchor:end;fill:#ffffff">Framework</tspan></text>
  </g>
  <g
     inkscape:groupmode="layer"
     id="layer2"
     inkscape:label="Layer 2"
     style="display:inline" />
  <g
     inkscape:groupmode="layer"
     id="layer3"
     inkscape:label="Layer 3"
     style="display:inline" />
</svg>
